<svg xmlns="http://www.w3.org/2000/svg" height="42px" id="Layer_1" x="0" y="0" version="1.1" viewBox="0 0 244.2 55.5" xml:space="preserve">
  <defs/>
  <switch>
    <g>
      <path d="M11.4 45.8c-3.5 0-6.3-1-8.3-2.9-2-1.9-3-4.6-3-8v-2.6c0-.8.2-1.4.7-1.9.5-.5 1.1-.7 2-.7h1.1c.9 0 1.6.3 2 .8.4.6.6 1.2.6 1.8v2.5c0 3.5 1.6 5.2 4.9 5.2h8.2c3.3 0 4.9-1.7 4.9-5.2v-3.2c0-2.6-2.3-4.4-6.9-5.4-1.7-.2-3.6-.6-5.6-1.1-2-.5-3.9-1.1-5.7-1.9-1.8-.8-3.3-1.9-4.5-3.2C.6 18.7 0 17 0 14.8V11c0-3.2 1-5.9 3-7.9s4.8-3 8.3-3h8.2c3.5 0 6.3 1 8.3 3 2 2 3 4.6 3 7.9v1.8c0 .6-.2 1.2-.6 1.8-.4.6-1.1.9-2 .9h-.9c-1.9 0-2.8-.9-2.8-2.7V11c0-3.4-1.6-5.1-4.9-5.1h-8.2c-3.3 0-4.9 1.7-4.9 5.1v3.7c0 .8.5 1.7 1.4 2.6.9.9 2.7 1.6 5.4 2.2l5.7 1.2c1.9.4 3.7 1 5.6 1.9 1.8.8 3.3 2 4.5 3.4 1.2 1.4 1.8 3.3 1.8 5.5V35c0 3.4-1 6.1-3 8-2 1.9-4.7 2.9-8.3 2.9h-8.2zM62.7 45.8c-1.6 0-2.4-.8-2.4-2.4v-22c0-3.1-1.5-4.6-4.4-4.6h-4.5c-3.3 0-4.9 1.5-4.9 4.4v22.2c0 1.6-.8 2.4-2.4 2.4h-.9c-.8 0-1.5-.3-1.8-.8-.4-.6-.6-1.1-.6-1.5V2.4c0-.5.2-1.1.6-1.6.4-.5 1-.8 1.8-.8h.8c1.6 0 2.4.8 2.4 2.4v10.1c1.5-.6 3.2-.9 4.9-.9h4.5c3.1 0 5.6.9 7.5 2.6 1.9 1.7 2.8 4.2 2.8 7.4v22c0 1.6-.8 2.4-2.5 2.4h-.9z" class="st0"/>
      <path fill="#ed3a4e" d="M85.9 28.6v1.7c0 1 .8 1.7 1.7 1.7h11.8c.8 0 1.5-.3 1.8-.8.4-.5.6-1.1.6-1.6v-7.4c0-2.9-.9-5.3-2.6-7.1-1.8-1.8-4.3-2.7-7.6-2.7h-5.4c-3.2 0-5.7.9-7.5 2.7-1.8 1.8-2.7 4.1-2.7 7.1V36c0 2.9.9 5.3 2.7 7.1 1.8 1.8 4.3 2.7 7.5 2.7H99c.6 0 1.2-.2 1.7-.6.5-.4.8-1 .8-1.7v-.7c0-1.5-.9-2.3-2.5-2.3H86.1c-3 0-4.5-1.5-4.5-4.6V22.3c0-3 1.5-4.5 4.5-4.5h5.4c3 0 4.5 1.5 4.5 4.5v4.5h-8.5c-.8 0-1.6.8-1.6 1.8z"/>
      <path d="M149.6 45.8c-.5 0-1.1-.2-1.7-.5-.6-.3-.9-.9-.9-1.8V43c0-.3.1-.6.2-.8l.3-.6 15.2-23.9h-12.8c-1.6 0-2.4-.8-2.4-2.3v-.7c0-.5.2-.9.6-1.5.4-.5 1-.8 1.8-.8h17.9c.6 0 1.1.2 1.6.6.5.4.8.9.8 1.7v.7c0 .7-.1 1.1-.4 1.4l-15.2 23.8h13.5c.8 0 1.3.3 1.8.8.4.5.6 1 .6 1.5v.7c0 .6-.2 1.1-.6 1.6-.4.5-1 .7-1.8.7h-18.5zM198.3 43.3c-.7 1.7-1.3 3.2-1.8 4.4-.5 1.2-1 2.1-1.5 2.7-2.2 3.3-5.3 5-9.2 5h-1.6c-.6 0-1.2-.2-1.8-.5-.6-.3-.9-1-.9-1.9v-.7c0-.8.3-1.3.8-1.7.5-.4 1.2-.6 2-.6h1.6c1.8 0 3.1-.6 3.9-1.8.8-1.2 1.6-2.6 2.1-4.1-1.7-4.1-3.5-8.7-5.6-13.8-2-5.1-4-10.1-5.8-14.9-.2-.5-.1-1.1.1-1.8.3-.8.9-1.1 2-1.1h1c.8 0 1.4.2 1.8.7.3.5.6.8.8 1l8.5 22.3 5.3-13.9 3.2-8.4c.3-.5.6-.8 1-1.2.4-.3 1-.5 1.6-.5h.9c1.2 0 1.9.4 2.1 1.1.2.8.3 1.4.2 1.8l-10.7 27.9zM134.3 14.6c-1.9-1.8-4.3-2.7-7.5-2.7h-5c-3.1 0-5.6.9-7.5 2.7-1.8 1.8-2.8 4.1-2.8 7.1v21.2c0 .7.2 1.2.6 1.7.4.5 1.1.7 1.9.7h.9c.8 0 1.3-.2 1.8-.7.4-.4.6-1 .6-1.7V21.7c0-3 1.5-4.5 4.4-4.5h5c2.9 0 4.4 1.5 4.4 4.5v21.2c0 .7.2 1.2.6 1.7.4.5 1 .7 1.8.7h.9c.8 0 1.5-.2 1.9-.7.4-.4.6-1 .6-1.7V21.7c.1-3-.8-5.3-2.6-7.1zM241.4 14.6c-1.9-1.8-4.3-2.7-7.5-2.7H229c-3.1 0-5.6.9-7.5 2.7-1.8 1.8-2.8 4.1-2.8 7.1v21.2c0 .7.2 1.2.6 1.7.4.5 1.1.7 1.9.7h.9c.8 0 1.3-.2 1.8-.7.4-.4.6-1 .6-1.7V21.7c0-3 1.5-4.5 4.4-4.5h5c2.9 0 4.4 1.5 4.4 4.5v21.2c0 .7.2 1.2.6 1.7.4.5 1 .7 1.8.7h.9c.8 0 1.5-.2 1.9-.7.4-.4.6-1 .6-1.7V21.7c.1-3-.9-5.3-2.7-7.1z" class="st0"/>
    </g>
  </switch>
</svg>
