<svg xmlns="http://www.w3.org/2000/svg" version="1.1" viewBox="0 0 324.1 57.6" xml:space="preserve">
  <switch>
    <g>
      <linearGradient id="SVGID_1_" x1="69.1936" x2="24.7955" y1="-10.2833" y2="30.8539" gradientUnits="userSpaceOnUse">
        <stop offset="0" stop-color="#9859f5"/>
        <stop offset=".9988" stop-color="#ef5869"/>
      </linearGradient>
      <path fill="url(#SVGID_1_)" d="M54.5 0h-32S1.7-.6 0 20.1c0 .9 0 1.7.1 2.5 1.4 10.5 10.7 20.1 10.7 20.1h15.7l-9.9-10.1S4.1 21.5 14.7 12.4c0 0 2.4-1.9 7.3-2.2h22.4s-.1 10.2-8.4 12H23.7l11.9 12s7.8 7.6 1.7 16.1c-3.9 4.6-11.1 4.4-11.1 4.4s11.8 6.5 20.4-2.2c7-7.1 1.6-17.7 1.6-17.7s-1-2.4-3.4-5.4c0 0 10.3-5.5 9.8-21.2 0-2.6-.1-8.2-.1-8.2z"/>
      <linearGradient id="SVGID_2_" x1="31.8816" x2="9.7012" y1="47.9429" y2="17.9229" gradientUnits="userSpaceOnUse">
        <stop offset="0" stop-color="#753a98"/>
        <stop offset="1" stop-color="#58489e"/>
      </linearGradient>
      <path fill="url(#SVGID_2_)" d="M26.4 42.8H10.8s-5.5-5.7-8.7-13.2c-.7-5.1-.3-11.4 4.2-15.9 0 0 4.4-4.7 15.1-3.5h.3c-4.7.3-7.1 2.2-7.1 2.2-10.6 9.2 1.9 20.2 1.9 20.2l9.9 10.2z"/>
      <linearGradient id="SVGID_3_" x1="35.8389" x2="42.553" y1="53.9533" y2="36.7161" gradientUnits="userSpaceOnUse">
        <stop offset="0" stop-color="#753a98"/>
        <stop offset="1" stop-color="#58489e"/>
      </linearGradient>
      <path fill="url(#SVGID_3_)" d="M43 55.3c-7.9 4.3-16.7-.5-16.7-.5s7.2.2 11.1-4.4c4.6-6.4 1.2-12.3-.7-14.8h.1s8.6 5.3 9.7 12.4c.4 3.3-1.4 5.7-3.5 7.3z"/>
      <path d="M91.3 47.9c-3.5 0-6.3-1-8.3-2.9-2-1.9-3-4.6-3-8v-2.6c0-.8.2-1.4.7-1.9.5-.5 1.1-.7 2-.7h1.1c.9 0 1.6.3 2 .8.4.6.6 1.2.6 1.8V37c0 3.5 1.6 5.2 4.9 5.2h8.2c3.3 0 4.9-1.7 4.9-5.2v-3.2c0-2.6-2.3-4.4-6.9-5.4-1.7-.3-3.5-.7-5.6-1.1-2-.5-3.9-1.1-5.7-1.9-1.8-.8-3.3-1.9-4.5-3.2-1.2-1.3-1.8-3-1.8-5.2v-3.8c0-3.2 1-5.9 3-7.9s4.8-3 8.3-3h8.2c3.5 0 6.3 1 8.3 3 2 2 3 4.6 3 7.9V15c0 .6-.2 1.2-.6 1.8-.4.6-1.1.9-2 .9h-.9c-1.9 0-2.8-.9-2.8-2.7v-1.8c0-3.4-1.6-5.1-4.9-5.1h-8.2c-3.3 0-4.9 1.7-4.9 5.1v3.7c0 .8.5 1.7 1.4 2.6.9.9 2.7 1.6 5.4 2.2l5.7 1.2c1.9.4 3.7 1 5.6 1.9 1.8.8 3.3 2 4.5 3.4 1.2 1.4 1.8 3.3 1.8 5.5v3.5c0 3.4-1 6.1-3 8-2 1.9-4.7 2.9-8.3 2.9h-8.2zM142.6 47.9c-1.6 0-2.4-.8-2.4-2.4v-22c0-3.1-1.5-4.6-4.4-4.6h-4.5c-3.3 0-4.9 1.5-4.9 4.4v22.2c0 1.6-.8 2.4-2.4 2.4h-1c-.8 0-1.5-.3-1.8-.8-.4-.6-.6-1.1-.6-1.5V4.5c0-.5.2-1.1.6-1.6.4-.5 1-.8 1.8-.8h.9c1.6 0 2.4.8 2.4 2.4v10.1c1.5-.6 3.2-.9 4.9-.9h4.5c3.1 0 5.6.9 7.5 2.6 1.9 1.7 2.8 4.2 2.8 7.4v22c0 1.6-.8 2.4-2.5 2.4h-.9z" class="st3"/>
      <path fill="#ed3a4e" d="M165.8 30.7v1.7c0 1 .8 1.7 1.7 1.7h11.8c.8 0 1.5-.3 1.8-.8.4-.5.6-1.1.6-1.6v-7.4c0-2.9-.9-5.3-2.6-7.1-1.8-1.8-4.3-2.7-7.6-2.7h-5.4c-3.2 0-5.7.9-7.5 2.7-1.8 1.8-2.7 4.1-2.7 7.1v13.8c0 2.9.9 5.3 2.7 7.1 1.8 1.8 4.3 2.7 7.5 2.7h12.8c.6 0 1.2-.2 1.7-.6.5-.4.8-1 .8-1.7V45c0-1.5-.9-2.3-2.5-2.3h-12.8c-3 0-4.5-1.5-4.5-4.6V24.4c0-3 1.5-4.5 4.5-4.5h5.4c3 0 4.5 1.5 4.5 4.5v4.5h-8.5c-.9 0-1.7.8-1.7 1.8z"/>
      <path d="M229.5 47.9c-.5 0-1.1-.2-1.7-.5-.6-.3-.9-.9-.9-1.8V45c0-.3.1-.6.2-.8l.3-.6 15.2-23.9h-12.8c-1.6 0-2.4-.8-2.4-2.3v-.7c0-.5.2-.9.6-1.5.4-.5 1-.8 1.8-.8h17.9c.6 0 1.1.2 1.6.6.5.4.8.9.8 1.7v.7c0 .7-.1 1.1-.4 1.4l-15.2 23.8H248c.8 0 1.3.3 1.8.8.4.5.6 1 .6 1.5v.7c0 .6-.2 1.1-.6 1.6-.4.5-1 .7-1.8.7h-18.5zM278.2 45.5c-.7 1.7-1.3 3.2-1.8 4.4-.5 1.2-1 2.1-1.5 2.7-2.2 3.3-5.3 5-9.2 5h-1.6c-.6 0-1.2-.2-1.8-.5-.6-.3-.9-1-.9-1.9v-.7c0-.8.3-1.3.8-1.7.5-.4 1.2-.6 2-.6h1.6c1.8 0 3.1-.6 3.9-1.8.8-1.2 1.6-2.6 2.1-4.1-1.7-4.1-3.5-8.7-5.6-13.8-2-5.1-4-10.1-5.8-14.9-.2-.5-.1-1.1.1-1.8.3-.8.9-1.1 2-1.1h1c.8 0 1.4.2 1.8.7.3.5.6.8.8 1l8.5 22.3 5.3-13.9 3.2-8.4c.3-.5.6-.8 1-1.2.4-.3 1-.5 1.6-.5h.9c1.2 0 1.9.4 2.1 1.1.2.8.3 1.4.2 1.8l-10.7 27.9zM214.2 16.7c-1.9-1.8-4.3-2.7-7.5-2.7h-5c-3.1 0-5.6.9-7.5 2.7-1.8 1.8-2.8 4.1-2.8 7.1V45c0 .7.2 1.2.6 1.7.4.5 1.1.7 1.9.7h.9c.8 0 1.3-.2 1.8-.7.4-.4.6-1 .6-1.7V23.8c0-3 1.5-4.5 4.4-4.5h5c2.9 0 4.4 1.5 4.4 4.5V45c0 .7.2 1.2.6 1.7.4.5 1 .7 1.8.7h.9c.8 0 1.5-.2 1.9-.7.4-.4.6-1 .6-1.7V23.8c.2-2.9-.8-5.3-2.6-7.1zM321.3 16.7c-1.9-1.8-4.3-2.7-7.5-2.7h-5c-3.1 0-5.6.9-7.5 2.7-1.8 1.8-2.8 4.1-2.8 7.1V45c0 .7.2 1.2.6 1.7.4.5 1.1.7 1.9.7h.9c.8 0 1.3-.2 1.8-.7.4-.4.6-1 .6-1.7V23.8c0-3 1.5-4.5 4.4-4.5h5c2.9 0 4.4 1.5 4.4 4.5V45c0 .7.2 1.2.6 1.7.4.5 1 .7 1.8.7h.9c.8 0 1.5-.2 1.9-.7.4-.4.6-1 .6-1.7V23.8c.2-2.9-.7-5.3-2.6-7.1z" class="st3"/>
    </g>
  </switch>
</svg>
