<svg xmlns="http://www.w3.org/2000/svg" xmlns:xlink="http://www.w3.org/1999/xlink" width="1227" height="295" viewBox="0 0 1227 295">
  <defs>
    <filter id="Rectangle_103" x="-52.5" y="-52.5" width="1332" height="400" filterUnits="userSpaceOnUse">
      <feOffset input="SourceAlpha"/>
      <feGaussianBlur stdDeviation="17.5" result="blur"/>
      <feFlood flood-opacity="0.161"/>
      <feComposite operator="in" in2="blur"/>
      <feComposite in="SourceGraphic"/>
    </filter>
    <clipPath id="clip-path">
      <g transform="matrix(1, 0, 0, 1, 0, 0)" filter="url(#Rectangle_103)">
        <rect id="Rectangle_103-2" data-name="Rectangle 103" width="1227" height="295" rx="20" transform="translate(68 184)" fill="#fff"/>
      </g>
    </clipPath>
  </defs>
  <g id="Mask_Group_3" data-name="Mask Group 3" transform="translate(-68 -184)" clip-path="url(#clip-path)">
    <g id="Group_126" data-name="Group 126" transform="translate(4542 624.472)">
      <path id="Path_139" data-name="Path 139" d="M2494.13,1090c7.829,7.148,4.42,14.3-1.362,27.571s-6.808,62.294-6.808,62.294l4.767-.681s-.681-50.378,5.786-63.994,9.191-20.423,14.978-16S2494.13,1090,2494.13,1090Z" transform="translate(-6981.68 -1330.627)" fill="#74b570"/>
      <path id="Path_140" data-name="Path 140" d="M2511.356,885.157c.952-4.236,6.6-8.819,14.148-12.708-1.121,6.247-4.721,16.463-1,18.558,5.024,2.826.489-11.437,2.428-19.277a93.244,93.244,0,0,1,23.473-7.7l-.032.087c-4.42,11.232-10.212,15.658-7.829,17.359,1.8,1.28,7.631-11.7,15.341-18.347,5.787-.308,10.684.476,13.58,2.762,4.477,3.544,7.481,6.689,2.979,17.481a20.23,20.23,0,0,1-9.776,3.543c-10.212,1.021-14.977,1.362-7.829,4.765,3.5,1.667,9.367-.094,14.126-1.166-1.544,2.843-3.441,6.062-5.746,9.728a36.141,36.141,0,0,1-4.784,6.089c-3.292.63-6.161.638-7.68-.014-4.765-2.041-17.02-8.51-20.083-5.786-3,2.664,22.7,4.352,20.915,11.126-12.453,7.175-26.705,3.761-29.223-2.828C2520.981,899.986,2508.49,897.9,2511.356,885.157Z" transform="translate(-7003.203 -1135.038)" fill="#9cd499"/>
      <path id="Path_141" data-name="Path 141" d="M2459.952,1346.2c-13.616-10.213-27.573-.681-34.72,10.211s-2.043,35.4-2.043,35.4,2.724,0,2.724-1.021-7.489-28.933,10.211-41.528c11.073-7.873,19.061-4.084,20.083-.34s-4.42,10.553-4.42,10.553Z" transform="translate(-6926.057 -1547.687)" fill="#74b570"/>
      <path id="Path_142" data-name="Path 142" d="M2469.863,1221.41c13.617,0,18.042,21.1,14.3,33.358s-8.851,35.062-8.851,35.062l-3.4-3.4s12.936-32,9.872-46.294-10.553-16.678-11.915-16.678S2469.863,1221.41,2469.863,1221.41Z" transform="translate(-6967.285 -1443.886)" fill="#9cd499"/>
      <path id="Path_143" data-name="Path 143" d="M2539.335,1344.591c25.871-10.892,12.24-25.84,35.048-15.968a16.885,16.885,0,0,1,5.525,4.866,16.982,16.982,0,0,1-7.227.58c-6.807-1.021-4.42,4.42,6.808,5.787a25.468,25.468,0,0,1,5.264,1.105c5.351,10.278,7.764,23.8-3.562,28.5a25.729,25.729,0,0,1-8.06,1.657c-3.494-2.778.854-18.85-4.534-16.631-5.173,2.131,1.621,13.779.69,16.713a74.578,74.578,0,0,1-16.161-2.265c-2.138-1.2-3.769-2.8-4.272-4.916-1.7-7.148,9.531-11.573,9.87-17.7.314-5.633-4.116,12.392-15.854,15.044C2532.253,1356.411,2527.243,1349.683,2539.335,1344.591Z" transform="translate(-7021.614 -1533.511)" fill="#9cd499"/>
      <path id="Path_144" data-name="Path 144" d="M2190.723,1170.938c2.724-5.787-4.42-7.149-4.084-2.724.3,3.922.334,13.453-3.687,16.049a63.113,63.113,0,0,1-23.5-7.807,2.873,2.873,0,0,1,.3-1.773c3.064-6.127,22.806-11.234,16.678-13.277-4.88-1.626-13.429,7.975-20.319,12.811-4.144-3.14-6.906-6.883-6.906-11.061,0-5.655,6.872-12.057,15.757-15.116,4.006.4,7.714,2.59,13.517,5.879,8.572,4.856,6.59-3-1.52-7.658a24.406,24.406,0,0,1,19.118,10.5s-.487,3.052,2.743,7.773c8.814,12.883-1.358,20.4-13.517,19.913C2185.985,1181.046,2188.842,1174.935,2190.723,1170.938Z" transform="translate(-6691.435 -1379.116)" fill="#9cd499"/>
      <path id="Path_145" data-name="Path 145" d="M2675.436,1368.68c6.656,5.144,14.052,11.158,23.129,15.242s7.261,17.4,7.261,17.4,1.362-11.5-6.2-15.432-12.558-8.623-18.307-9.531a83.386,83.386,0,0,1-8.927-1.815s1.816-3.631.757-4.993S2675.436,1368.68,2675.436,1368.68Z" transform="translate(-7142.359 -1570.741)" fill="#74b570"/>
      <path id="Path_146" data-name="Path 146" d="M2627.069,931.89c-24.359,6.506-42.211,22.089-45.54,25.871s-3.329,4.834-3.329,4.834l2.573,4.843,1.209-.606s-1.967-4.084,3.177-9.38c8.87-9.131,19.669-16.339,27.082-19.517S2627.069,931.89,2627.069,931.89Z" transform="translate(-7061.18 -1194.356)" fill="#74b570"/>
      <path id="Path_147" data-name="Path 147" d="M6.583,0h20.1A6.584,6.584,0,0,1,33.27,6.584V33.36H0V6.583A6.584,6.584,0,0,1,6.582,0Z" transform="translate(-4480.063 -127.638) rotate(180)" fill="#75a1de"/>
      <rect id="Rectangle_101" data-name="Rectangle 101" width="33.27" height="2.343" transform="translate(-4513.331 -157.179)" fill="#fff"/>
      <rect id="Rectangle_102" data-name="Rectangle 102" width="33.27" height="1.377" transform="translate(-4513.331 -152.908)" fill="#fff"/>
    </g>
    <g id="Group_127" data-name="Group 127" transform="translate(1212.766 302.028)">
      <path id="Path_139-2" data-name="Path 139" d="M2507.985,1090c-9.427,8.608-5.323,17.215,1.64,33.2s8.2,75.014,8.2,75.014l-5.74-.82s.82-60.665-6.967-77.061-11.068-24.593-18.037-19.264S2507.985,1090,2507.985,1090Z" transform="translate(-2434.5 -1052.254)" fill="#74b570"/>
      <path id="Path_140-2" data-name="Path 140" d="M2589.591,889.668c-1.146-5.1-7.945-10.62-17.037-15.3,1.35,7.523,5.685,19.825,1.2,22.348-6.05,3.4-.589-13.772-2.924-23.213a112.279,112.279,0,0,0-28.266-9.273l.038.1c5.323,13.526,12.3,18.855,9.427,20.9-2.162,1.542-9.189-14.083-18.474-22.093-6.969-.371-12.865.574-16.353,3.326-5.391,4.268-9.008,8.055-3.588,21.051a24.362,24.362,0,0,0,11.773,4.266c12.3,1.229,18.035,1.64,9.427,5.738-4.216,2.008-11.28-.113-17.01-1.4,1.859,3.423,4.143,7.3,6.919,11.714a43.529,43.529,0,0,0,5.761,7.332c3.964.759,7.418.768,9.248-.017,5.738-2.458,20.495-10.247,24.184-6.967,3.611,3.208-27.329,5.241-25.185,13.4,15,8.641,32.158,4.529,35.19-3.4C2578,907.525,2593.042,905.018,2589.591,889.668Z" transform="translate(-2510.933 -863.067)" fill="#9cd499"/>
      <path id="Path_141-2" data-name="Path 141" d="M2421.422,1347.093c16.4-12.3,33.2-.82,41.81,12.3s2.46,42.628,2.46,42.628-3.28,0-3.28-1.229,9.018-34.841-12.3-50.008c-13.334-9.48-22.953-4.918-24.184-.409s5.322,12.708,5.322,12.708Z" transform="translate(-2373.762 -1262.212)" fill="#74b570"/>
      <path id="Path_142-2" data-name="Path 142" d="M2488.01,1221.41c-16.4,0-21.726,25.413-17.217,40.17s10.658,42.221,10.658,42.221l4.1-4.1s-15.577-38.53-11.888-55.747,12.708-20.084,14.348-20.084S2488.01,1221.41,2488.01,1221.41Z" transform="translate(-2402.638 -1161.807)" fill="#9cd499"/>
      <path id="Path_143-2" data-name="Path 143" d="M2592.381,1348.51c-31.153-13.116-14.74-31.116-42.2-19.229-1.934.832-4.291,2.949-6.653,5.86a20.449,20.449,0,0,0,8.7.7c8.2-1.229,5.323,5.323-8.2,6.969a30.657,30.657,0,0,0-6.339,1.331c-6.443,12.377-9.349,28.662,4.29,34.324a30.984,30.984,0,0,0,9.705,2c4.208-3.345-1.028-22.7,5.46-20.027,6.229,2.567-1.953,16.593-.832,20.126a89.806,89.806,0,0,0,19.46-2.728c2.575-1.442,4.539-3.376,5.144-5.92,2.051-8.607-11.477-13.937-11.885-21.315-.378-6.783,4.956,14.923,19.091,18.116C2600.909,1362.743,2606.943,1354.641,2592.381,1348.51Z" transform="translate(-2525.244 -1248.5)" fill="#9cd499"/>
      <path id="Path_144-2" data-name="Path 144" d="M2162.948,1175.976c-3.28-6.969,5.323-8.609,4.918-3.28-.363,4.722-.4,16.2,4.439,19.326a76,76,0,0,0,28.3-9.4,3.457,3.457,0,0,0-.361-2.135c-3.689-7.378-27.463-13.527-20.084-15.988,5.876-1.958,16.172,9.6,24.469,15.427,4.99-3.781,8.316-8.288,8.316-13.32,0-6.809-8.275-14.519-18.975-18.2-4.823.486-9.289,3.119-16.277,7.079-10.322,5.848-7.936-3.608,1.83-9.221a29.389,29.389,0,0,0-23.021,12.641s.587,3.676-3.3,9.361c-10.614,15.513,1.635,24.568,16.277,23.979C2168.653,1188.148,2165.213,1180.79,2162.948,1175.976Z" transform="translate(-2073.614 -1099.157)" fill="#9cd499"/>
      <path id="Path_145-2" data-name="Path 145" d="M2709.165,1368.7c-8.016,6.194-16.921,13.436-27.852,18.354s-8.744,20.957-8.744,20.957-1.64-13.847,7.468-18.584,15.122-10.384,22.045-11.477a100.4,100.4,0,0,0,10.75-2.186s-2.187-4.373-.911-6.013S2709.165,1368.7,2709.165,1368.7Z" transform="translate(-2660.518 -1284.512)" fill="#74b570"/>
      <path id="Path_146-2" data-name="Path 146" d="M2578.2,931.89c29.333,7.834,50.83,26.6,54.839,31.153s4.008,5.821,4.008,5.821l-3.1,5.831-1.457-.73s2.368-4.918-3.826-11.3c-10.681-11-23.685-19.675-32.612-23.5S2578.2,931.89,2578.2,931.89Z" transform="translate(-2569.067 -920.443)" fill="#74b570"/>
      <path id="Path_147-2" data-name="Path 147" d="M7.927,40.172H32.135a7.929,7.929,0,0,0,7.929-7.929V0H0V32.244a7.928,7.928,0,0,0,7.926,7.927Z" transform="translate(64.468 133.634)" fill="#75a1de"/>
      <rect id="Rectangle_101-2" data-name="Rectangle 101" width="40.063" height="2.821" transform="translate(64.466 138.233)" fill="#fff"/>
      <rect id="Rectangle_102-2" data-name="Rectangle 102" width="40.063" height="1.658" transform="translate(64.466 143.375)" fill="#fff"/>
    </g>
  </g>
</svg>
