<svg xmlns="http://www.w3.org/2000/svg" width="396.683" height="318.071" viewBox="0 0 396.683 318.071"><defs><style>.a{fill:#2e5b9a;}.b{fill:#f09959;}.c{fill:#6791c9;}.d{fill:#75a1de;}.e{fill:#f37168;}.f{fill:#d54a41;}.g{fill:#e38540;}.h{fill:#f2e5de;}.i{fill:#303c60;}</style></defs><rect class="a" width="235.669" height="8.782" rx="4.391" transform="translate(0 150.053)"/><path class="b" d="M1601.121,113.854c3.125,11.018-4.508,22.371-12.916,24.756s-14.409-5.1-17.534-16.119,1.165-21.884,9.566-24.269S1598,102.837,1601.121,113.854Z" transform="translate(-1308.573 -81.495)"/><path class="b" d="M1426.627,1478.13s21.549,33.469,24.46,34.929,10.186,1.82,7.458,7.275-3.825,26.922-6.367,28.013-24.375,3.638-21.1,0,5.287-1.818,6.941-8.368,3.973-18.916.881-21.456-22.01-25.467-22.01-25.467Z" transform="translate(-1181.221 -1232.274)"/><path class="b" d="M603.576,1564.54s-26.2,43.174-31.045,47.054-20.859,9.7-7.769,10.671,19.4-4.366,27.65-6.791,18.432-3.88,14.552-10.187-2.269-20.073,6.1-28.8S603.576,1564.54,603.576,1564.54Z" transform="translate(-466.628 -1304.312)"/><path class="c" d="M901.239,962.477s-64.845-1.695-90.554,19.4c-15.038,22.8-51.417,90.068-54.245,97.482,1.941,1.941,12.855,5.442,17.706,4.957,14.3-17.062,33.226-31.813,40.75-45.2,9.269-16.493,12.127-24.74,27.165-26.195s49-6.312,59.178-6.312S901.239,962.477,901.239,962.477Z" transform="translate(-630.623 -802.362)"/><path class="a" d="M1827.814,1402.585h-3.4L1800.04,1300.89h7.478Z" transform="translate(-1500.643 -1084.514)"/><path class="a" d="M1354.84,1384.569h3.4l27.97-105.289h-7.478Z" transform="translate(-1129.492 -1066.499)"/><path class="d" d="M1210.108,935.94l-37.7,6.507s-50.1.461-73,4.725c-20.836,3.88-23.9,27.554,0,60.151,13.579,18.517,25.061,33.289,48.54,49.943,5.973-4.385,8.258-6.043,9.908-16.593-1.7-2.329-6.1-16.914-7.463-19.767-12.987-27.148-30.322-37.02-30.563-39.691,2.911-4.729,77.095,24.651,91.843,7.368C1225.756,972.083,1210.108,935.94,1210.108,935.94Z" transform="translate(-902.542 -780.266)"/><path class="e" d="M1617.455,420.642a39.467,39.467,0,0,0-29.5,7.342c-8.265,8.425-17.616,22.316-17.043,45.241.728,29.107-4.5,30.972.953,38.976,22.76,9.4,61.686,49.78,52.52,6.487-6.636-31.346,14.559-54.712-2.54-89.484C1620.454,426.367,1618.714,423.622,1617.455,420.642Z" transform="translate(-1308.324 -350.319)"/><path class="f" d="M1570.9,520.64c-.451,15.181-2.586,19.642-.95,24.4,9.28.948,26.251,4.657,30.493,10.6,4.85,6.791,9.7,7.761,7.438,2.749s-8.247-12.129.97-36.544,13.582-40.917,4.527-57.882Z" transform="translate(-1308.318 -386.789)"/><path class="b" d="M1710.708,268.736c-6.113-14.471-7.615-30.736-7.615-30.736l-16.008,4.73s9.095,20.372.364,27.649a82.691,82.691,0,0,0-6.24,5.7A39.445,39.445,0,0,1,1710.708,268.736Z" transform="translate(-1401.578 -198.413)"/><path class="g" d="M1733.155,246.174c-.948-.845-2.136-1.9-3.381-2.994l-13.057,3.857a.234.234,0,0,1-.027.072c.314.722,3.639,8.483,4.078,15.946,3.89-2.36,8.15-6.209,13.022-12.934C1733.526,248.626,1733.316,247.295,1733.155,246.174Z" transform="translate(-1431.156 -202.731)"/><path class="b" d="M1303.482,447.864C1287,453.63,1288.826,471,1273.651,496.613c-7.852,13.256-15.146,13.06-15.146,13.06a351.556,351.556,0,0,1-40.691-2.576c-13.946-1.71-14.835,2.448-5.131,5.915,19.565,7,39.869,14.525,56.241,12.706s44.371-43.59,45.813-54.462C1316.734,456.217,1311.785,444.961,1303.482,447.864Z" transform="translate(-1005.605 -372.988)"/><path class="a" d="M1449.3,775.733c-1.026,0-2.074-.013-3.152-.04a157.014,157.014,0,0,1-29.939-3.684c-8.581-1.743-13.306-2.7-18.809-.075a4.241,4.241,0,0,1-3.659-7.651c8.064-3.852,14.8-2.482,24.151-.582a149.349,149.349,0,0,0,28.454,3.516c14.2.354,22.862-1.753,27.251-6.62,3.91-4.336,5.055-11.623,3.6-22.932-.5-3.869-1-7.087-1.436-9.928-1.239-8.012-2.057-13.306-1.043-21.486.94-7.6,3.457-17.721,9.284-37.344a4.238,4.238,0,0,1,8.126,2.412c-10.86,36.57-10.313,40.133-7.984,55.123.448,2.891.953,6.166,1.465,10.146,1.793,13.943-.023,23.378-5.713,29.688C1474.042,772.774,1464.532,775.733,1449.3,775.733Z" transform="translate(-1159.912 -555.119)"/><path class="f" d="M605.332,1783.31c-17.38,8.5-26.736,13.371-32.308,12.907-1.316-.11-2.405-.243-3.326-.385-6.2,3.659-16.092,7.992-4.96,8.815,13.1.969,19.4-4.366,27.65-6.791s18.432-3.881,14.552-10.187A13.41,13.41,0,0,1,605.332,1783.31Z" transform="translate(-466.604 -1486.694)"/><path class="f" d="M1522.42,1692.37c-.426,13.762-2.317,27.4-10.733,29.974a14.16,14.16,0,0,1-6.064.541c-1.331,1.636-2.939,1.663-5.106,4.063-3.275,3.638,18.554,1.091,21.1,0s3.638-22.556,6.367-28.013C1530.224,1694.453,1525.715,1693.408,1522.42,1692.37Z" transform="translate(-1250.66 -1410.88)"/><path class="d" d="M821.52,626.185H766.3a4.238,4.238,0,0,1-3.844-2.452l-22.309-48.023a4.238,4.238,0,1,1,7.686-3.573L769,617.711H821.52a4.241,4.241,0,0,1,0,8.483Z" transform="translate(-616.708 -474.928)"/><path class="b" d="M1054.723,779.393c-11.157-.166-22.222-6.819-27.72-5.843s-23.452,13.421-21.182,13.907,16.493-6.891,16.979-7,3.556,5.108,11.157,7.026.053-5.7,23.619,1.419C1072.882,793.524,1054.723,779.393,1054.723,779.393Z" transform="translate(-838.36 -644.804)"/><path class="h" d="M1659.39,343.38l1.64,13.208s-14.437.86-21.623,4.9-17.787,15.721-17.787,15.721l8.662-14.913,1.247-9.539Z" transform="translate(-1351.899 -286.265)"/><path class="h" d="M1390.227,439.275c-10.723-2.009-15.683,7.6-22.637,23.286s-18.822,34.733-21.182,37.188-39.777,0-39.777,0-1.131,10.835,0,12.127,7.6,1.133,7.6,1.133,2.588,2.066,5.013,3.7,22.953,4.707,32.5,4.221,18.271-1.292,19.564-2.749,27.327-41.557,28.941-55.948S1395.7,440.3,1390.227,439.275Z" transform="translate(-1088.882 -365.99)"/><path class="i" d="M1535.01,7.312c-20.282.97-17.1,31.481-17.1,31.481s5.267,1.627,16.3-.193c-.85-3.275-.486-11.643-.486-11.643a76.235,76.235,0,0,0,2.911,10.916c2.328,1.069,4.971.12,9.459-.963,2.3,9.694,8.815,13.79,13.273,15.191,4.927,1.549,10.146,3.4,15.968.486s2.62-32.662-.471-38.645c-4.642-8.988-12.348-17.025-25.694-12.784A98.849,98.849,0,0,0,1535.01,7.312Z" transform="translate(-1265.288 0.008)"/><path class="i" d="M1833.68,250.874l8.292,12.11s-9.19,22.962,17.543,33.364c20.932,8.15,18.462,22.5,9.008,36.938s5.655,27.043,5.655,27.043,2.305-15.992,22.644-19.011c27.727-4.115,35.581-41.348,14.868-59.963-17.14-15.4-22.355-2.646-33.956-16.467s-33.5-4.491-33.5-4.491L1836.2,248.69Z" transform="translate(-1528.688 -207.325)"/><path class="i" d="M1970.385,351.092a.737.737,0,0,1-.645-1.091c6.972-12.742,1.282-28.183-1.578-32.364-.3-.442-.592-.893-.9-1.367-2.811-4.389-6.311-9.852-24.983-13.213-4.491-.81-8.138-3.483-11.992-6.312-7.962-5.845-16.987-12.475-36.592-3.446a.737.737,0,1,1-.617-1.339c20.4-9.388,29.794-2.495,38.089,3.6,3.714,2.726,7.22,5.3,11.382,6.049,19.306,3.476,23,9.24,25.964,13.868.3.466.58.906.872,1.331,2.994,4.383,8.958,20.556,1.663,33.906A.738.738,0,0,1,1970.385,351.092Z" transform="translate(-1577.851 -239.556)"/><path class="i" d="M1698.446,191.84a29,29,0,0,1-4.306-.348c-7.1-1.063-16.614-5.095-17.361-27.739a.737.737,0,0,1,1.474-.048c.308,9.333,2.162,16.239,5.5,20.525,2.54,3.257,5.91,5.1,10.6,5.8,6.567.983,10.919-.23,12.937-3.6a.737.737,0,0,1,1.266.757C1706.711,190.283,1703.317,191.84,1698.446,191.84Z" transform="translate(-1397.882 -135.881)"/><path class="a" d="M148.65,1100.137H154.1L175.3,938.1H163.309Z" transform="translate(-123.925 -782.066)"/><path class="a" d="M1126.777,1100.137h-5.449L1100.13,938.1h11.989Z" transform="translate(-917.148 -782.066)"/></svg>